<?xml version="1.0" standalone="no"?><!-- Generator: Gravit.io --><svg xmlns="http://www.w3.org/2000/svg" xmlns:xlink="http://www.w3.org/1999/xlink" style="isolation:isolate" viewBox="0 0 579.997 579.997" width="579.997" height="579.997"><defs><clipPath id="_clipPath_MZWuxJ4Cwt2bleuUubmfQHkWGqi4J3P8"><rect width="579.997" height="579.997"/></clipPath></defs><g clip-path="url(#_clipPath_MZWuxJ4Cwt2bleuUubmfQHkWGqi4J3P8)"><path d=" M 289.999 357 C 289.999 307.328 331.67 267 382.999 267 C 434.327 267 475.999 307.328 475.999 357 C 475.999 406.672 434.327 447 382.999 447 C 331.67 447 289.999 406.672 289.999 357 Z " fill="none" vector-effect="non-scaling-stroke" stroke-width="30" stroke="rgb(0,0,0)" stroke-linejoin="miter" stroke-linecap="square" stroke-miterlimit="3"/><path d=" M 103.998 357 C 103.998 307.328 145.67 267 196.998 267 C 248.327 267 289.999 307.328 289.999 357 C 289.999 406.672 248.327 447 196.999 447 C 145.67 447 103.999 406.672 103.998 357 Z " fill="none" vector-effect="non-scaling-stroke" stroke-width="30" stroke="rgb(0,0,0)" stroke-linejoin="miter" stroke-linecap="square" stroke-miterlimit="3"/><path d=" M 196.998 195 C 196.998 145.328 238.67 105 289.999 105 C 341.327 105 382.999 145.328 382.999 195 C 382.999 244.672 341.327 285 289.999 285 C 238.67 285 196.998 244.672 196.998 195 Z " fill="none" vector-effect="non-scaling-stroke" stroke-width="30" stroke="rgb(0,0,0)" stroke-linejoin="miter" stroke-linecap="square" stroke-miterlimit="3"/></g></svg>