<?xml version="1.0" standalone="no"?><!-- Generator: Gravit.io --><svg xmlns="http://www.w3.org/2000/svg" xmlns:xlink="http://www.w3.org/1999/xlink" style="isolation:isolate" viewBox="0 0 579.997 579.997" width="579.997" height="579.997"><defs><clipPath id="_clipPath_LimKek6KYaFhzQYqTI69JNFexX9lOtRn"><rect width="579.997" height="579.997"/></clipPath></defs><g clip-path="url(#_clipPath_LimKek6KYaFhzQYqTI69JNFexX9lOtRn)"><path d=" M 349 178.999 C 349 236.398 326.596 282.999 299 282.999 C 271.404 282.999 249 236.398 249 178.999 C 249 121.601 271.404 75 299 75 C 326.596 75 349 121.601 349 178.999 Z " fill="none" vector-effect="non-scaling-stroke" stroke-width="30" stroke="rgb(0,0,0)" stroke-linejoin="miter" stroke-linecap="square" stroke-miterlimit="3"/><path d=" M 513 302.5 C 513 326.508 465.055 346 406 346 C 346.945 346 299 326.508 299 302.5 C 299 278.492 346.945 259 406 259 C 465.055 259 513 278.492 513 302.5 Z " fill="none" vector-effect="non-scaling-stroke" stroke-width="30" stroke="rgb(0,0,0)" stroke-linejoin="miter" stroke-linecap="square" stroke-miterlimit="3"/><path d=" M 299 302.5 C 299 326.508 250.383 346 190.501 346 C 130.618 346 82.002 326.508 82.002 302.5 C 82.001 278.492 130.618 259 190.501 259 C 250.383 259 299 278.492 299 302.5 Z " fill="none" vector-effect="non-scaling-stroke" stroke-width="30" stroke="rgb(0,0,0)" stroke-linejoin="miter" stroke-linecap="square" stroke-miterlimit="3"/><line x1="299" y1="394" x2="299" y2="302.5" vector-effect="non-scaling-stroke" stroke-width="30" stroke="rgb(0,0,0)" stroke-linejoin="miter" stroke-linecap="square" stroke-miterlimit="3"/></g></svg>